<svg width="20" height="20" viewBox="0 0 20 20" fill="none" xmlns="http://www.w3.org/2000/svg">
<path d="M17.369 14.2875C17.0918 14.928 16.7636 15.5176 16.3834 16.0596C15.8651 16.7986 15.4407 17.3101 15.1137 17.5942C14.6067 18.0604 14.0635 18.2992 13.4818 18.3128C13.0642 18.3128 12.5607 18.1939 11.9745 17.9529C11.3863 17.713 10.8459 17.5942 10.3517 17.5942C9.83338 17.5942 9.27751 17.713 8.68294 17.9529C8.08746 18.1939 7.60776 18.3196 7.24099 18.332C6.6832 18.3558 6.12722 18.1102 5.57226 17.5942C5.21805 17.2852 4.77501 16.7556 4.24426 16.0053C3.67482 15.2041 3.20665 14.275 2.83989 13.2158C2.44709 12.0717 2.25018 10.9638 2.25018 9.89123C2.25018 8.6626 2.51567 7.60292 3.04743 6.71491C3.46535 6.00163 4.02133 5.43897 4.71718 5.02592C5.41303 4.61286 6.1649 4.40238 6.9746 4.38891C7.41764 4.38891 7.99863 4.52595 8.72062 4.79529C9.44058 5.06553 9.90286 5.20257 10.1055 5.20257C10.2571 5.20257 10.7706 5.04233 11.6412 4.72286C12.4645 4.42659 13.1593 4.30392 13.7285 4.35224C15.271 4.47673 16.4298 5.08476 17.2004 6.1802C15.8209 7.01604 15.1386 8.18674 15.1521 9.68855C15.1646 10.8583 15.589 11.8318 16.423 12.6047C16.8009 12.9634 17.2231 13.2407 17.6927 13.4376C17.5908 13.733 17.4833 14.0159 17.369 14.2875ZM13.8315 0.367015C13.8315 1.28389 13.4965 2.13998 12.8289 2.93236C12.0231 3.87435 11.0485 4.41867 9.99169 4.33278C9.97823 4.22278 9.97042 4.10702 9.97042 3.98536C9.97042 3.10516 10.3536 2.16317 11.0341 1.39297C11.3738 1.003 11.8058 0.678752 12.3298 0.420089C12.8526 0.165286 13.3472 0.0243746 13.8123 0.000244141C13.8258 0.122816 13.8315 0.245396 13.8315 0.367003V0.367015Z" fill="#44403C"/>
</svg>
