<svg width="20" height="20" viewBox="0 0 20 20" fill="none" xmlns="http://www.w3.org/2000/svg">
<g clip-path="url(#clip0_112_3291)">
<path d="M19.8052 10.2305C19.8052 9.55068 19.7501 8.86724 19.6325 8.19849H10.2002V12.0493H15.6016C15.3775 13.2913 14.6573 14.3899 13.6027 15.0881V17.5867H16.8252C18.7176 15.845 19.8052 13.2729 19.8052 10.2305Z" fill="#4285F4"/>
<path d="M10.2001 20.0006C12.8971 20.0006 15.1716 19.1151 16.8288 17.5865L13.6063 15.0879C12.7097 15.6979 11.5523 16.0433 10.2038 16.0433C7.59492 16.0433 5.38291 14.2832 4.58923 11.9169H1.26385V14.4927C2.96145 17.8695 6.4191 20.0006 10.2001 20.0006Z" fill="#34A853"/>
<path d="M4.58564 11.9169C4.16676 10.6749 4.16676 9.33008 4.58564 8.08811V5.51233H1.26395C-0.154388 8.33798 -0.154388 11.667 1.26395 14.4927L4.58564 11.9169Z" fill="#FBBC04"/>
<path d="M10.2001 3.95805C11.6258 3.936 13.0037 4.47247 14.0362 5.45722L16.8913 2.60218C15.0834 0.904587 12.684 -0.0287217 10.2001 0.000673888C6.4191 0.000673888 2.96145 2.13185 1.26385 5.51234L4.58555 8.08812C5.37556 5.71811 7.59125 3.95805 10.2001 3.95805Z" fill="#EA4335"/>
</g>
<defs>
<clipPath id="clip0_112_3291">
<rect width="20" height="20" fill="white"/>
</clipPath>
</defs>
</svg>
